<?xml version="1.0" encoding="iso-8859-1"?>
<!-- Generator: Adobe Illustrator 18.1.1, SVG Export Plug-In . SVG Version: 6.00 Build 0)  -->
<svg version="1.1" id="Capa_1" xmlns="http://www.w3.org/2000/svg" xmlns:xlink="http://www.w3.org/1999/xlink" x="0px" y="0px"
	 viewBox="0 0 32 32" style="enable-background:new 0 0 32 32;" xml:space="preserve">
<g>
	<g>
		<path style="fill:#010002;" d="M23,13c-0.025,0-0.049,0.003-0.074,0.004C23.607,11.826,24,10.459,24,9c0-4.418-3.582-8-8-8
			S8,4.582,8,9c0,4.26,3.332,7.732,7.531,7.977C15.112,17.6,14.778,18.281,14.523,19H4c-4,0-4,4-4,4v8h32v-8c0,0,0-0.793,0-1
			C31.998,17.027,27.971,13,23,13z M23,28.883c-3.801-0.009-6.876-3.084-6.885-6.883c0.009-3.801,3.084-6.876,6.885-6.884
			c3.799,0.008,6.874,3.083,6.883,6.884C29.874,25.799,26.799,28.874,23,28.883z"/>
		<polygon style="fill:#010002;" points="24.002,17 22,17 22,21 18,21 18,23 22,23 22,27 24.002,27 24.002,23 28,23 28,21 
			24.002,21 		"/>
	</g>
</g>
<g>
</g>
<g>
</g>
<g>
</g>
<g>
</g>
<g>
</g>
<g>
</g>
<g>
</g>
<g>
</g>
<g>
</g>
<g>
</g>
<g>
</g>
<g>
</g>
<g>
</g>
<g>
</g>
<g>
</g>
</svg>
