<?xml version="1.0" encoding="utf-8"?>
<!-- Generator: Adobe Illustrator 16.0.0, SVG Export Plug-In . SVG Version: 6.00 Build 0)  -->
<!DOCTYPE svg PUBLIC "-//W3C//DTD SVG 1.1 Tiny//EN" "http://www.w3.org/Graphics/SVG/1.1/DTD/svg11-tiny.dtd">
<svg version="1.1" baseProfile="tiny" id="Layer_1" xmlns="http://www.w3.org/2000/svg" xmlns:xlink="http://www.w3.org/1999/xlink"
	 x="0px" y="0px" width="16px" height="16px" viewBox="0 0 24 24" xml:space="preserve">
<g>
	<path d="M15.713,13.901v0.628H8.287v-0.628c0-0.788-0.641-1.428-1.428-1.428H4.133l1.653-4.342h1.193c0.221,0,0.4-0.179,0.4-0.4
		s-0.18-0.4-0.4-0.4H5.511c-0.166,0-0.314,0.103-0.374,0.257L3.179,12.73c-0.047,0.123-0.03,0.261,0.045,0.37
		c0.074,0.108,0.197,0.173,0.329,0.173h3.307c0.346,0,0.627,0.282,0.627,0.628v1.028c0,0.221,0.18,0.4,0.4,0.4h8.227
		c0.221,0,0.4-0.179,0.4-0.4v-1.028c0-0.347,0.281-0.628,0.628-0.628h3.307c0.132,0,0.255-0.064,0.329-0.173
		c0.075-0.108,0.092-0.247,0.045-0.37l-1.958-5.142c-0.06-0.155-0.208-0.257-0.374-0.257h-1.511c-0.221,0-0.4,0.179-0.4,0.4
		s0.18,0.4,0.4,0.4h1.235l1.653,4.342h-2.727C16.354,12.473,15.713,13.113,15.713,13.901z"/>
	<path d="M23.274,13.392l-2.742-7.198c-0.006-0.015-0.013-0.03-0.021-0.044c-0.224-0.534-0.733-0.875-1.313-0.875h-5.219
		c-0.221,0-0.4,0.179-0.4,0.4s0.18,0.4,0.4,0.4h5.219c0.261,0,0.49,0.159,0.584,0.406c0.005,0.013,0.011,0.025,0.017,0.038
		l2.727,7.159c0.029,0.079,0.043,0.152,0.043,0.225v6.513c0,0.347-0.281,0.628-0.628,0.628H2.06c-0.347,0-0.628-0.282-0.628-0.628
		v-6.513c0-0.073,0.014-0.146,0.043-0.225c0.005-0.013,0.009-0.025,0.013-0.038l2.709-7.113c0.007-0.014,0.014-0.029,0.02-0.044
		c0.095-0.247,0.325-0.407,0.586-0.407h5.178c0.221,0,0.4-0.179,0.4-0.4s-0.18-0.4-0.4-0.4H4.802c-0.575,0-1.084,0.338-1.311,0.866
		c-0.01,0.017-0.018,0.035-0.025,0.054l-2.741,7.198c-0.006,0.016-0.011,0.032-0.015,0.048c-0.052,0.153-0.079,0.308-0.079,0.461
		v6.513c0,0.788,0.642,1.428,1.429,1.428H21.94c0.787,0,1.429-0.641,1.429-1.428v-6.513C23.369,13.735,23.338,13.566,23.274,13.392z
		"/>
	<path d="M9.311,7.303c-0.156-0.156-0.41-0.156-0.566,0s-0.156,0.409,0,0.565l2.973,2.972c0.005,0.005,0.012,0.006,0.017,0.011
		c0.033,0.031,0.07,0.058,0.113,0.076c0.049,0.02,0.101,0.031,0.153,0.031s0.104-0.011,0.153-0.031
		c0.043-0.018,0.08-0.045,0.114-0.076c0.005-0.004,0.011-0.006,0.016-0.011l2.973-2.972c0.156-0.156,0.156-0.409,0-0.565
		s-0.41-0.156-0.566,0L12.4,9.592V2.558c0-0.221-0.18-0.4-0.4-0.4s-0.4,0.179-0.4,0.4v7.034L9.311,7.303z"/>
</g>
</svg>
